<?xml version="1.0" encoding="utf-8"?>
<!-- Generator: Adobe Illustrator 25.4.1, SVG Export Plug-In . SVG Version: 6.00 Build 0)  -->
<svg version="1.1" id="Слой_1" xmlns="http://www.w3.org/2000/svg" xmlns:xlink="http://www.w3.org/1999/xlink" x="0px" y="0px"
	 viewBox="0 0 64 64" style="enable-background:new 0 0 64 64;" xml:space="preserve">
<style type="text/css">
	.st0{fill:#F6F1DF;stroke:#6B6B6B;stroke-width:1.952;stroke-miterlimit:10;}
	.st1{fill:#CDCCCC;}
</style>
<g>
	<path class="st0" d="M51.83,25.83c0.65,1.82,1.22,3.72,1.69,5.7c3.8,15.82-1.27,29.69-19.56,31.37
		C15.66,64.33,8.32,51.52,9.4,35.28c0.16-2.41,0.47-4.74,0.91-6.96l1.84,3.52l3.79-4.89l2.71,3.53l3.25-1.9L33,36.18l0.54-7.87
		l3.79,3.53l3.25-3.26l1.35,3.53L51.83,25.83z"/>
	<path class="st1" d="M53.13,34.35c2.84,15.41-4.21,28.09-22.56,27.6c-6.85-0.28-11.66-2.16-15.13-6.4c0,0,17.38,6.25,27.01-1.27
		C53.06,45.99,52.96,33.4,53.13,34.35z"/>
	<path class="st0" d="M49.81,20.15C45.92,8.93,38.65,1.4,31.17,0.99c-6.91-0.07-14.03,5.92-18.71,15.45l1.52,3l5.14-4.31l1.61,4.84
		l2.44-2.17l4.75,6.51l4.27-9l4.24,5.69l3.72-1.47l3.12,3.65L49.81,20.15z"/>
</g>
</svg>
