<?xml version="1.0" encoding="utf-8"?>
<!-- Generator: Adobe Illustrator 24.1.3, SVG Export Plug-In . SVG Version: 6.00 Build 0)  -->
<svg version="1.1" id="Слой_1" xmlns="http://www.w3.org/2000/svg" xmlns:xlink="http://www.w3.org/1999/xlink" x="0px" y="0px"
	 viewBox="0 0 64 64" style="enable-background:new 0 0 64 64;" xml:space="preserve">
<style type="text/css">
	.st0{fill:#F6F1DF;}
	.st1{fill:#6A6A6A;}
</style>
<g>
	<path class="st0" d="M3.09,51.41c-0.92,0-1.66-0.82-1.66-1.82s0.75-1.82,1.66-1.82h57.81c0.92,0,1.67,0.82,1.67,1.82
		s-0.75,1.82-1.67,1.82H3.09z M6.43,43.47C7.88,28.51,18.95,16.93,32,16.93s24.12,11.58,25.57,26.54H6.43z M33.84,13.93
		c-0.65-0.06-1.28-0.09-1.9-0.09c-0.57,0-1.16,0.03-1.77,0.08c0.36-0.79,1.05-1.32,1.83-1.32C32.79,12.59,33.48,13.13,33.84,13.93z"
		/>
	<path class="st1" d="M32,17.86c12.28,0,22.74,10.69,24.53,24.68H7.47C9.26,28.55,19.72,17.86,32,17.86 M60.91,48.69
		c0.4,0,0.73,0.41,0.73,0.89c0,0.48-0.34,0.89-0.73,0.89H3.09c-0.4,0-0.73-0.41-0.73-0.89c0-0.48,0.34-0.89,0.73-0.89H60.91
		 M32,11.66c-1.62,0-2.93,1.47-3.02,3.32c0.97-0.14,1.96-0.21,2.96-0.21c1.04,0,2.08,0.09,3.09,0.23
		C34.94,13.14,33.63,11.66,32,11.66L32,11.66z M32,16C17.98,16,6.49,28.51,5.42,44.4h53.16C57.51,28.51,46.02,16,32,16L32,16z
		 M60.91,46.83H3.09c-1.43,0-2.59,1.24-2.59,2.75c0,1.51,1.17,2.75,2.59,2.75h57.81c1.43,0,2.59-1.24,2.59-2.75
		C63.5,48.07,62.33,46.83,60.91,46.83L60.91,46.83z"/>
</g>
</svg>
