<?xml version="1.0" encoding="utf-8"?>
<!-- Generator: Adobe Illustrator 25.4.1, SVG Export Plug-In . SVG Version: 6.00 Build 0)  -->
<svg version="1.1" id="Слой_1" xmlns="http://www.w3.org/2000/svg" xmlns:xlink="http://www.w3.org/1999/xlink" x="0px" y="0px"
	 viewBox="0 0 65 65" style="enable-background:new 0 0 65 65;" xml:space="preserve">
<style type="text/css">
	.st0{fill:#FFFFFF;}
	.st1{fill:#B8B9B4;}
	.st2{fill:#CCCCCC;}
	.st3{fill:#FBC057;}
	.st4{fill:#FFE273;stroke:#FBC057;stroke-miterlimit:10;}
	.st5{fill:none;stroke:#FBC057;stroke-miterlimit:10;}
</style>
<g>
	<g>
		<g>
			<path class="st0" d="M63.31,28.95c0,11.95-9.61,29.7-29.66,31.32C10.67,62.12,1.63,49.24,1.69,33.66
				C1.74,21.71,12.47-3.54,28.61,7.15C45.26,18.17,63.31,17,63.31,28.95z"/>
			<path class="st1" d="M29.22,62.04c-8.96,0-16.04-2.36-21.12-7.06C2.77,50.03-0.03,42.67,0,33.7C0.04,24.76,5.63,9.34,14.66,4.51
				c4.53-2.42,9.31-2.01,14.21,1.24c6.68,4.42,13.51,6.89,19.53,9.08C57.67,18.19,65,20.85,65,28.84c0,12.3-9.94,31.3-31.26,33.02
				C32.19,61.98,30.68,62.04,29.22,62.04z M20.58,4.4c-1.8,0-3.55,0.45-5.25,1.37C6.77,10.35,1.45,25.12,1.42,33.71
				c-0.03,8.56,2.61,15.57,7.66,20.23c5.59,5.18,13.85,7.36,24.56,6.5c20.43-1.65,29.95-19.83,29.95-31.6c0-7-6.56-9.37-15.65-12.67
				c-6.11-2.22-13.02-4.73-19.84-9.23C25.54,5.24,23.03,4.4,20.58,4.4z"/>
			<path class="st2" d="M29.32,61.13c-8.68,0-15.55-2.29-20.47-6.84C3.68,49.49,0.97,42.36,1,33.66C1.04,25,6.46,10.05,15.21,5.37
				c4.39-2.35,9.02-1.95,13.77,1.2c6.47,4.28,13.09,6.68,18.93,8.8C56.9,18.63,64,21.21,64,28.95c0,11.92-9.63,30.34-30.3,32
				C32.2,61.07,30.74,61.13,29.32,61.13z M20.95,5.26c-1.74,0-3.44,0.44-5.09,1.33C7.56,11.03,2.41,25.35,2.38,33.67
				c-0.03,8.3,2.53,15.09,7.42,19.61c5.42,5.02,13.42,7.13,23.8,6.3c19.8-1.6,29.03-19.22,29.03-30.63c0-6.78-6.36-9.08-15.17-12.28
				c-5.92-2.15-12.62-4.58-19.23-8.95C25.75,6.08,23.32,5.26,20.95,5.26z"/>
		</g>
	</g>
	<g>
		<g>
			<circle class="st3" cx="27.87" cy="30.38" r="12.88"/>
			<path class="st3" d="M27.87,43.78c-7.39,0-13.4-6.01-13.4-13.4s6.01-13.4,13.4-13.4s13.4,6.01,13.4,13.4S35.26,43.78,27.87,43.78
				z M27.87,18.02c-6.82,0-12.36,5.55-12.36,12.36s5.55,12.36,12.36,12.36s12.36-5.55,12.36-12.36S34.69,18.02,27.87,18.02z"/>
		</g>
		<g>
			<circle class="st4" cx="27.87" cy="30.38" r="12.88"/>
			<path class="st5" d="M27.87,43.78c-7.39,0-13.4-6.01-13.4-13.4s6.01-13.4,13.4-13.4s13.4,6.01,13.4,13.4S35.26,43.78,27.87,43.78
				z M27.87,18.02c-6.82,0-12.36,5.55-12.36,12.36s5.55,12.36,12.36,12.36s12.36-5.55,12.36-12.36S34.69,18.02,27.87,18.02z"/>
		</g>
	</g>
</g>
</svg>
