<?xml version="1.0" encoding="utf-8"?>
<!-- Generator: Adobe Illustrator 25.4.1, SVG Export Plug-In . SVG Version: 6.00 Build 0)  -->
<svg version="1.1" id="Слой_1" xmlns="http://www.w3.org/2000/svg" xmlns:xlink="http://www.w3.org/1999/xlink" x="0px" y="0px"
	 viewBox="0 0 64 64" style="enable-background:new 0 0 64 64;" xml:space="preserve">
<style type="text/css">
	.st0{fill:#FBC057;}
	.st1{fill:none;stroke:#6B6B6B;stroke-width:1.9676;stroke-miterlimit:10;}
</style>
<path class="st0" d="M62.97,19.44C62.1,4.54,41.81,0.53,34.81,13.71L32,19l-2.81-5.29c-7-13.18-27.29-9.17-28.16,5.72
	C1.01,19.76,1,20.1,1,20.44l0,0c0,0,0.01,2.46,0.02,0.28C1.37,36.3,32,58.26,32,58.26S62.63,36.3,62.98,20.71
	C62.99,22.9,63,20.44,63,20.44l0,0C63,20.1,62.99,19.76,62.97,19.44z"/>
<path class="st1" d="M62.97,19.32C62.1,4.43,41.81,0.42,34.81,13.6L32,18.89l-2.81-5.29c-7-13.18-27.29-9.17-28.16,5.72
	C1.01,19.65,1,19.99,1,20.32l0,0c0,0,0.01,2.46,0.02,0.28C1.37,36.19,32,58.15,32,58.15S62.63,36.19,62.98,20.6
	c0.01,2.18,0.02-0.28,0.02-0.28l0,0C63,19.99,62.99,19.65,62.97,19.32z"/>
</svg>
