<?xml version="1.0" encoding="utf-8"?>
<!-- Generator: Adobe Illustrator 25.4.1, SVG Export Plug-In . SVG Version: 6.00 Build 0)  -->
<svg version="1.1" id="Слой_1" xmlns="http://www.w3.org/2000/svg" xmlns:xlink="http://www.w3.org/1999/xlink" x="0px" y="0px"
	 viewBox="0 0 65 65" style="enable-background:new 0 0 65 65;" xml:space="preserve">
<style type="text/css">
	.st0{fill:#6A6A6A;}
	.st1{fill:#131313;}
	.st2{fill:#FFFFFF;stroke:#DBDAD9;stroke-miterlimit:10;}
	.st3{fill:#FFE273;}
	.st4{fill:#FBC057;}
	.st5{fill:none;stroke:#ECEDE7;stroke-miterlimit:10;}
</style>
<g>
	<g>
		<path class="st0" d="M63.94,63.74L63.94,63.74c-1.01,1.01-2.66,1.01-3.67,0L39.04,42.52c-1.01-1.01-1.01-2.66,0-3.67l0,0
			c1.01-1.01,2.66-1.01,3.67,0l21.22,21.22C64.94,61.08,64.94,62.73,63.94,63.74z"/>
		<path class="st1" d="M62.1,65.32c-0.91,0-1.77-0.35-2.41-1L38.47,43.1c-0.64-0.64-1-1.5-1-2.41s0.35-1.77,1-2.41
			c1.33-1.33,3.49-1.33,4.82,0L64.51,59.5c1.33,1.33,1.33,3.49,0,4.82C63.87,64.96,63.01,65.32,62.1,65.32z M40.88,38.91
			c-0.48,0-0.92,0.18-1.26,0.52s-0.52,0.78-0.52,1.26s0.18,0.92,0.52,1.26l21.22,21.22c0.67,0.67,1.85,0.67,2.51,0
			c0.33-0.33,0.52-0.78,0.52-1.26s-0.18-0.92-0.52-1.26L42.13,39.43C41.8,39.09,41.35,38.91,40.88,38.91z"/>
	</g>
	<g>
		<circle class="st0" cx="26.99" cy="27.18" r="26.68"/>
		<path class="st1" d="M26.99,2.68c13.51,0,24.5,10.99,24.5,24.5s-10.99,24.5-24.5,24.5s-24.5-10.99-24.5-24.5
			S13.48,2.68,26.99,2.68 M26.99,0.5C12.25,0.5,0.31,12.44,0.31,27.18s11.94,26.68,26.68,26.68s26.68-11.94,26.68-26.68
			S41.72,0.5,26.99,0.5L26.99,0.5z"/>
	</g>
	<g>
		<path class="st2" d="M37.12,34.75c1.01-0.24,1.93-0.58,2.71-1c2.79-1.49,2.35-4.54,1.8-8.4c-0.35-2.51-0.76-5.36-0.46-8.51
			c0.22-2.31-0.52-4.06-2.21-5.19c-3.36-2.25-9.79-1.34-12.92,0.31c-2.99,1.58-4.98,3.8-5.79,6.41c-3.34,1.55-6.43,5.49-7.45,8.28
			c-1.22,3.34-1.16,6.45,0.16,9.01c1.26,2.42,3.58,4.26,6.91,5.47c0.55,0.2,1.11,0.38,1.69,0.55
			C29.05,43.72,34.92,39.07,37.12,34.75z"/>
		<g>
			<g>
				<circle class="st3" cx="32.39" cy="21.02" r="5.26"/>
				<g>
					<g>
						<path class="st4" d="M27.56,23.59c-1.42-2.67-0.41-5.98,2.25-7.4s5.98-0.41,7.4,2.25c1.42,2.67,0.41,5.98-2.25,7.4
							C32.3,27.26,28.97,26.25,27.56,23.59z M36.84,18.64c-1.31-2.45-4.37-3.39-6.83-2.08c-2.46,1.31-3.39,4.37-2.08,6.83
							s4.38,3.39,6.83,2.08C37.21,24.17,38.15,21.09,36.84,18.64z"/>
					</g>
				</g>
			</g>
		</g>
		<g>
			<g>
				<circle class="st3" cx="25.34" cy="33.44" r="5.26"/>
				<g>
					<g>
						<path class="st4" d="M23.48,38.59c-2.84-1.03-4.31-4.16-3.29-7s4.16-4.31,7-3.29c2.84,1.03,4.31,4.16,3.29,7
							C29.46,38.13,26.32,39.61,23.48,38.59z M27.06,28.69c-2.61-0.94-5.52,0.41-6.47,3.03c-0.95,2.62,0.41,5.52,3.03,6.47
							s5.52-0.42,6.47-3.03C31.04,32.54,29.67,29.64,27.06,28.69z"/>
					</g>
				</g>
			</g>
		</g>
	</g>
</g>
<circle class="st5" cx="26.98" cy="27.18" r="22.4"/>
</svg>
