<?xml version="1.0" encoding="utf-8"?>
<!-- Generator: Adobe Illustrator 25.4.1, SVG Export Plug-In . SVG Version: 6.00 Build 0)  -->
<svg version="1.1" id="Слой_1" xmlns="http://www.w3.org/2000/svg" xmlns:xlink="http://www.w3.org/1999/xlink" x="0px" y="0px"
	 viewBox="0 0 65 65" style="enable-background:new 0 0 65 65;" xml:space="preserve">
<style type="text/css">
	.st0{fill:#6A6A6A;}
	.st1{fill:#131313;}
	.st2{fill:none;stroke:#ECEDE7;stroke-miterlimit:10;}
</style>
<g>
	<g>
		<path class="st0" d="M63.94,63.74L63.94,63.74c-1.01,1.01-2.66,1.01-3.67,0L39.04,42.52c-1.01-1.01-1.01-2.66,0-3.67l0,0
			c1.01-1.01,2.66-1.01,3.67,0l21.22,21.22C64.94,61.08,64.94,62.73,63.94,63.74z"/>
		<path class="st1" d="M62.1,65.32c-0.91,0-1.77-0.35-2.41-1L38.47,43.1c-0.64-0.64-1-1.5-1-2.41s0.35-1.77,1-2.41
			c1.33-1.33,3.49-1.33,4.82,0L64.51,59.5c1.33,1.33,1.33,3.49,0,4.82C63.87,64.96,63.01,65.32,62.1,65.32z M40.88,38.91
			c-0.48,0-0.92,0.18-1.26,0.52s-0.52,0.78-0.52,1.26s0.18,0.92,0.52,1.26l21.22,21.22c0.67,0.67,1.85,0.67,2.51,0
			c0.33-0.33,0.52-0.78,0.52-1.26s-0.18-0.92-0.52-1.26L42.13,39.43C41.8,39.09,41.35,38.91,40.88,38.91z"/>
	</g>
	<g>
		<circle class="st0" cx="26.99" cy="27.18" r="26.68"/>
		<path class="st1" d="M26.99,2.68c13.51,0,24.5,10.99,24.5,24.5s-10.99,24.5-24.5,24.5s-24.5-10.99-24.5-24.5
			S13.48,2.68,26.99,2.68 M26.99,0.5C12.25,0.5,0.31,12.44,0.31,27.18s11.94,26.68,26.68,26.68s26.68-11.94,26.68-26.68
			S41.72,0.5,26.99,0.5L26.99,0.5z"/>
	</g>
</g>
<circle class="st2" cx="26.98" cy="27.18" r="22.4"/>
</svg>
