<?xml version="1.0" encoding="utf-8"?>
<!-- Generator: Adobe Illustrator 24.1.3, SVG Export Plug-In . SVG Version: 6.00 Build 0)  -->
<svg version="1.1" id="Слой_1" xmlns="http://www.w3.org/2000/svg" xmlns:xlink="http://www.w3.org/1999/xlink" x="0px" y="0px"
	 viewBox="0 0 400 400" style="enable-background:new 0 0 400 400;" xml:space="preserve">
<style type="text/css">
	.st0{fill:#6A6A6A;}
</style>
<g>
	<path class="st0" d="M167.38,75.71c-0.14,0.05-0.29,0.1-0.39,0.14c-9.71,5.02-23.76,26.38-23.76,86.22
		c0,32.16,13.67,51.55,17.38,62.26c6.52,18.71-6.18,65.73-8.5,87.57c-0.77,7.28,5.51,13.26,12.22,13.26c1.06,0,2.08-0.19,3.09-0.48
		v-0.05c5.22-1.49,9.13-6.61,9.13-12.73V82.61C176.46,77.35,171.63,73.88,167.38,75.71z M246.58,75.86l-0.53,77.98h-6.42
		l-1.45-77.98h-3.33l-1.55,77.98h-4.01h-1.35h-1.06l-1.35-77.98h-3.04l-1.59,77.98h-6.42l-0.72-77.98h-3.09
		c-2.8,18.08-5.55,53.14-5.55,71.13c0,22.09,4.49,21.8,17.63,27.05l-4.83,137.87c0,6.51,4.35,11.81,10.04,12.97v0.1
		c0.72,0.14,1.4,0.24,2.17,0.24c6.71,0,12.22-5.98,12.22-13.26l-4.83-137.87c13.09-5.21,17.63-4.97,17.63-27.05
		c0-17.99-2.75-52.66-5.6-71.13h-2.95V75.86z"/>
</g>
</svg>
