<?xml version="1.0" encoding="utf-8"?>
<!-- Generator: Adobe Illustrator 25.4.1, SVG Export Plug-In . SVG Version: 6.00 Build 0)  -->
<svg version="1.1" id="Слой_1" xmlns="http://www.w3.org/2000/svg" xmlns:xlink="http://www.w3.org/1999/xlink" x="0px" y="0px"
	 viewBox="0 0 64 64" style="enable-background:new 0 0 64 64;" xml:space="preserve">
<style type="text/css">
	.st0{display:none;}
	.st1{display:inline;}
	.st2{fill:#FFFFFF;}
	.st3{fill:#B8B9B4;}
	.st4{fill:#FFE273;}
	.st5{fill:#FBC057;}
	.st6{fill:#6A6A6A;}
</style>
<g id="ovo" class="st0">
	<g class="st1">
		<path class="st2" d="M48.91,12.85C44.06,4.66,38.05,0.15,32,0.15s-12.06,4.51-16.91,12.7c-4.29,7.24-6.95,16.36-6.95,23.82
			c0,14.68,10.48,26.18,23.86,26.18s23.86-11.5,23.86-26.18C55.86,29.21,53.19,20.08,48.91,12.85z"/>
		<path class="st3" d="M32,63.5c-13.74,0-24.51-11.79-24.51-26.84c0-7.56,2.7-16.82,7.04-24.15C19.51,4.12,25.71-0.5,32-0.5
			s12.5,4.62,17.47,13.01l0,0c4.34,7.33,7.04,16.59,7.04,24.15C56.51,51.71,45.74,63.5,32,63.5z M32,0.81
			c-5.81,0-11.62,4.39-16.34,12.37C11.43,20.32,8.8,29.32,8.8,36.66c0,14.32,10.19,25.53,23.2,25.53s23.2-11.21,23.2-25.53
			c0-7.34-2.63-16.34-6.86-23.48l0,0C43.62,5.2,37.81,0.81,32,0.81z"/>
	</g>
	<g class="st1">
		<circle class="st4" cx="32" cy="39.35" r="16.66"/>
		<path class="st5" d="M32,56.66c-9.55,0-17.31-7.77-17.31-17.31c0-9.55,7.77-17.31,17.31-17.31s17.31,7.77,17.31,17.31
			C49.31,48.89,41.55,56.66,32,56.66z M32,23.34c-8.83,0-16.01,7.18-16.01,16.01S23.17,55.36,32,55.36s16.01-7.18,16.01-16.01
			C48.01,30.52,40.83,23.34,32,23.34z"/>
	</g>
</g>
<g>
	<g>
		<path class="st3" d="M18.58,62.1c-1.48,0-2.74-1.01-3.05-2.46L6.66,18.69h50.69l-8.03,40.88c-0.29,1.46-1.58,2.53-3.07,2.53H18.58
			z M46.68,21.48c-0.7,0-1.27,0.5-1.37,1.2l-4.65,32.98c-0.05,0.37,0.04,0.73,0.27,1.03s0.55,0.49,0.92,0.54
			c0.06,0.01,0.13,0.01,0.2,0.01c0.69,0,1.28-0.51,1.38-1.2l4.65-32.98c0.05-0.37-0.04-0.73-0.27-1.03
			c-0.22-0.3-0.55-0.49-0.92-0.54C46.82,21.48,46.75,21.48,46.68,21.48z M32,21.48c-0.77,0-1.39,0.62-1.39,1.39v32.98
			c0,0.77,0.62,1.39,1.39,1.39s1.39-0.62,1.39-1.39V22.87C33.39,22.1,32.77,21.48,32,21.48z M17.31,21.48c-0.07,0-0.13,0-0.2,0.01
			c-0.37,0.05-0.69,0.24-0.92,0.54c-0.22,0.3-0.32,0.66-0.27,1.03l4.65,32.98c0.1,0.68,0.69,1.2,1.38,1.2c0.07,0,0.14,0,0.21-0.02
			c0.36-0.05,0.68-0.24,0.91-0.54c0.22-0.3,0.32-0.66,0.27-1.03l-4.65-32.98C18.59,21.99,18,21.48,17.31,21.48z"/>
		<path class="st6" d="M56.74,19.19l-7.92,40.28c-0.24,1.23-1.33,2.12-2.58,2.12H18.58c-1.25,0-2.3-0.85-2.56-2.07L7.28,19.19H56.74
			 M21.96,57.74c0.09,0,0.19-0.01,0.26-0.02c0.5-0.07,0.94-0.33,1.25-0.74c0.3-0.4,0.43-0.9,0.36-1.4l-4.65-32.98
			c-0.13-0.93-0.94-1.63-1.87-1.63c-0.09,0-0.18,0.01-0.27,0.02c-0.5,0.07-0.94,0.33-1.25,0.74c-0.3,0.4-0.43,0.9-0.36,1.4
			l4.65,32.98C20.22,57.04,21.02,57.74,21.96,57.74 M42.04,57.74c0.94,0,1.74-0.7,1.87-1.63l4.65-32.98c0.07-0.5-0.06-1-0.36-1.4
			c-0.3-0.4-0.75-0.67-1.25-0.74c-0.09-0.01-0.18-0.02-0.27-0.02c-0.95,0-1.74,0.69-1.87,1.63l-4.65,32.98
			c-0.07,0.5,0.06,1,0.36,1.4c0.3,0.4,0.75,0.67,1.23,0.73C41.85,57.74,41.95,57.74,42.04,57.74 M32,57.74
			c1.04,0,1.89-0.85,1.89-1.89V22.87c0-1.04-0.85-1.89-1.89-1.89c-1.04,0-1.89,0.85-1.89,1.89v32.98
			C30.11,56.89,30.96,57.74,32,57.74 M57.96,18.19H6.04l9,41.55c0.36,1.67,1.83,2.86,3.54,2.86h27.67c1.73,0,3.22-1.22,3.56-2.93
			L57.96,18.19L57.96,18.19z M21.96,56.74c-0.44,0-0.82-0.32-0.88-0.77l-4.65-32.98c-0.07-0.49,0.27-0.94,0.76-1.01
			c0.04-0.01,0.08-0.01,0.13-0.01c0.43,0,0.82,0.32,0.88,0.77l4.65,32.98c0.07,0.49-0.27,0.94-0.76,1.01
			C22.04,56.74,22,56.74,21.96,56.74L21.96,56.74z M42.04,56.74c-0.04,0-0.08,0-0.13-0.01c-0.49-0.07-0.83-0.52-0.76-1.01
			l4.65-32.98c0.06-0.44,0.43-0.77,0.88-0.77c0.04,0,0.09,0,0.13,0.01c0.49,0.07,0.83,0.52,0.76,1.01l-4.65,32.98
			C42.86,56.42,42.48,56.74,42.04,56.74L42.04,56.74z M32,56.74c-0.49,0-0.89-0.4-0.89-0.89V22.87c0-0.49,0.4-0.89,0.89-0.89
			c0.49,0,0.89,0.4,0.89,0.89v32.98C32.89,56.34,32.49,56.74,32,56.74L32,56.74z"/>
	</g>
	<path class="st6" d="M46.25,63.55H18.58c-2.17,0-4.01-1.48-4.47-3.61l-9.25-42.7h54.25l-8.37,42.61
		C50.32,62,48.43,63.55,46.25,63.55z M7.22,19.14l8.75,40.4c0.27,1.24,1.34,2.11,2.61,2.11h27.67c1.27,0,2.38-0.91,2.63-2.17
		l7.93-40.34H7.22z"/>
</g>
<g>
	<g>
		<path class="st3" d="M5.01,14.55v-2.9c0-0.68,0.56-1.24,1.24-1.24h4.2V7.7c0-0.68,0.56-1.24,1.24-1.24h10.43V3.34
			c0-0.68,0.56-1.24,1.24-1.24h17.28c0.68,0,1.24,0.56,1.24,1.24v3.13h10.43c0.68,0,1.24,0.56,1.24,1.24v2.7h4.21
			c0.68,0,1.24,0.56,1.24,1.24v2.9H5.01z M26.65,4.03C25.74,4.03,25,4.77,25,5.68s0.74,1.65,1.65,1.65h11.22
			c0.91,0,1.65-0.74,1.65-1.65s-0.74-1.65-1.65-1.65H26.65z"/>
		<path class="st6" d="M40.64,2.6c0.41,0,0.74,0.33,0.74,0.74v2.63v1h1h9.93c0.41,0,0.74,0.33,0.74,0.74v2.2v1h1h3.71
			c0.41,0,0.74,0.33,0.74,0.74v2.4H5.51v-2.4c0-0.41,0.33-0.74,0.74-0.74h3.7h1v-1V7.7c0-0.41,0.33-0.74,0.74-0.74h9.93h1v-1V3.34
			c0-0.41,0.33-0.74,0.74-0.74H40.64 M26.65,7.83h11.22c1.18,0,2.15-0.96,2.15-2.15c0-1.18-0.96-2.15-2.15-2.15H26.65
			c-1.18,0-2.15,0.96-2.15,2.15C24.5,6.87,25.46,7.83,26.65,7.83 M40.64,1.6H23.36c-0.96,0-1.74,0.78-1.74,1.74v2.62h-9.93
			c-0.96,0-1.74,0.78-1.74,1.74v2.21h-3.7c-0.96,0-1.74,0.78-1.74,1.74v3.4H59.5v-3.4c0-0.96-0.78-1.74-1.74-1.74h-3.71v-2.2
			c0-0.96-0.78-1.74-1.74-1.74h-9.93V3.34C42.38,2.38,41.6,1.6,40.64,1.6L40.64,1.6z M26.65,6.83c-0.63,0-1.15-0.51-1.15-1.15
			c0-0.63,0.51-1.15,1.15-1.15h11.22c0.63,0,1.15,0.51,1.15,1.15c0,0.63-0.51,1.15-1.15,1.15H26.65L26.65,6.83z"/>
	</g>
	<path class="st6" d="M57.76,9.02h-2.82V7.71c0-1.45-1.18-2.63-2.63-2.63h-9.04V3.34c0-1.45-1.18-2.63-2.63-2.63H23.36
		c-1.45,0-2.63,1.18-2.63,2.63v1.73h-9.04c-1.45,0-2.63,1.18-2.63,2.63v1.32H6.25c-1.45,0-2.63,1.18-2.63,2.63v4.29h56.77v-4.29
		C60.39,10.2,59.21,9.02,57.76,9.02z M58.61,14.16H5.4v-2.51c0-0.47,0.38-0.85,0.85-0.85h4.59V7.7c0-0.47,0.38-0.85,0.85-0.85h10.82
		V3.34c0-0.47,0.38-0.85,0.85-0.85h17.28c0.47,0,0.85,0.38,0.85,0.85v3.52h10.82c0.47,0,0.85,0.38,0.85,0.85v2.22l0.02,0.88l0.88,0
		h3.71c0.47,0,0.85,0.38,0.85,0.85V14.16z"/>
</g>
</svg>
